{
  "source": "C:\\Users\\Peter\\Desktop\\stuff\\MIUN\\quantitative_research\\video_compression\\videos\\UVG\\Bosphorus_1920x1080_120fps_420_8bit_YUV.y4m",
  "output": "C:\\Users\\Peter\\Desktop\\stuff\\MIUN\\quantitative_research\\video_compression\\compressed_videos\\UVG\\h264\\4\\Bosphorus_1920x1080_120fps_420_8bit_YUV_h264.mp4",
  "codec": "h264",
  "ok": "[yuv4mpegpipe @ 0000024da2816600] Stream #0: not enough frames to estimate rate; consider increasing probesize\nInput #0, yuv4mpegpipe, from 'C:\\Users\\Peter\\Desktop\\stuff\\MIUN\\quantitative_research\\video_compression\\videos\\UVG\\Bosphorus_1920x1080_120fps_420_8bit_YUV.y4m':\n  Duration: 00:00:05.00, start: 0.000000, bitrate: 2985989 kb/s\n  Stream #0:0: Video: rawvideo (I420 / 0x30323449), yuv420p(progressive), 1920x1080, 120 fps, 120 tbr, 120 tbn\n[out#0/mp4 @ 0000024da281a240] Codec AVOption b:a (set bitrate (in bits/s)) has not been used for any stream. The most likely reason is either wrong type (e.g. a video option with no video streams) or that it is a private option of some decoder which was not actually used for any stream.\nStream mapping:\n  Stream #0:0 -> #0:0 (rawvideo (native) -> h264 (libx264))\nPress [q] to stop, [?] for help\n[libx264 @ 0000024da281ca80] using cpu capabilities: MMX2 SSE2Fast SSSE3 SSE4.2 AVX FMA3 BMI2 AVX2\n[libx264 @ 0000024da281ca80] profile High, level 5.1, 4:2:0, 8-bit\n[libx264 @ 0000024da281ca80] 264 - core 165 r3222 b35605a - H.264/MPEG-4 AVC codec - Copyleft 2003-2025 - http://www.videolan.org/x264.html - options: cabac=1 ref=5 deblock=1:0:0 analyse=0x3:0x113 me=hex subme=8 psy=1 psy_rd=1.00:0.00 mixed_ref=1 me_range=16 chroma_me=1 trellis=2 8x8dct=1 cqm=0 deadzone=21,11 fast_pskip=1 chroma_qp_offset=-2 threads=18 lookahead_threads=3 sliced_threads=0 nr=0 decimate=1 interlaced=0 bluray_compat=0 constrained_intra=0 bframes=3 b_pyramid=2 b_adapt=1 b_bias=0 direct=3 weightb=1 open_gop=0 weightp=2 keyint=250 keyint_min=25 scenecut=40 intra_refresh=0 rc_lookahead=50 rc=cbr mbtree=1 bitrate=4000 ratetol=1.0 qcomp=0.60 qpmin=0 qpmax=69 qpstep=4 vbv_maxrate=4000 vbv_bufsize=4000 nal_hrd=none filler=0 ip_ratio=1.40 aq=1:1.00\nOutput #0, mp4, to 'C:\\Users\\Peter\\Desktop\\stuff\\MIUN\\quantitative_research\\video_compression\\compressed_videos\\UVG\\h264\\4\\Bosphorus_1920x1080_120fps_420_8bit_YUV_h264.mp4':\n  Metadata:\n    encoder         : Lavf62.3.100\n  Stream #0:0: Video: h264 (avc1 / 0x31637661), yuv420p(tv, progressive), 1920x1080, q=2-31, 4000 kb/s, 120 fps, 15360 tbn\n    Metadata:\n      encoder         : Lavc62.11.100 libx264\n    Side data:\n      cpb: bitrate max/min/avg: 4000000/0/4000000 buffer size: 4000000 vbv_delay: N/A\nframe=    0 fps=0.0 q=0.0 size=       0KiB time=N/A bitrate=N/A speed=N/A elapsed=0:00:00.52    \nframe=    0 fps=0.0 q=0.0 size=       0KiB time=N/A bitrate=N/A speed=N/A elapsed=0:00:01.03    \nframe=   24 fps= 15 q=39.0 size=       0KiB time=00:00:00.18 bitrate=   2.1kbits/s speed=0.116x elapsed=0:00:01.58    \nframe=   49 fps= 23 q=38.0 size=       0KiB time=00:00:00.39 bitrate=   1.0kbits/s speed=0.181x elapsed=0:00:02.15    \nframe=   80 fps= 30 q=38.0 size=       0KiB time=00:00:00.65 bitrate=   0.6kbits/s speed=0.241x elapsed=0:00:02.69    \nframe=  109 fps= 34 q=38.0 size=     256KiB time=00:00:00.88 bitrate=2374.6kbits/s speed=0.272x elapsed=0:00:03.24    \nframe=  140 fps= 36 q=38.0 size=     256KiB time=00:00:01.11 bitrate=1878.4kbits/s speed=0.291x elapsed=0:00:03.83    \nframe=  170 fps= 39 q=38.0 size=     512KiB time=00:00:01.35 bitrate=3088.1kbits/s speed=0.311x elapsed=0:00:04.36    \nframe=  197 fps= 40 q=38.0 size=     512KiB time=00:00:01.62 bitrate=2581.3kbits/s speed=0.328x elapsed=0:00:04.95    \nframe=  226 fps= 41 q=38.0 size=     768KiB time=00:00:01.86 bitrate=3370.6kbits/s speed=0.338x elapsed=0:00:05.52    \nframe=  242 fps= 40 q=38.0 size=     768KiB time=00:00:02.00 bitrate=3145.9kbits/s speed=0.327x elapsed=0:00:06.12    \nframe=  274 fps= 41 q=38.0 size=    1024KiB time=00:00:02.25 bitrate=3728.4kbits/s speed=0.338x elapsed=0:00:06.65    \nframe=  306 fps= 42 q=38.0 size=    1024KiB time=00:00:02.50 bitrate=3355.6kbits/s speed=0.347x elapsed=0:00:07.20    \nframe=  331 fps= 43 q=38.0 size=    1024KiB time=00:00:02.74 bitrate=3059.8kbits/s speed=0.352x elapsed=0:00:07.78    \nframe=  358 fps= 43 q=38.0 size=    1280KiB time=00:00:02.96 bitrate=3534.7kbits/s speed=0.357x elapsed=0:00:08.30    \nframe=  386 fps= 43 q=38.0 size=    1280KiB time=00:00:03.20 bitrate=3276.9kbits/s speed=0.36x elapsed=0:00:08.87    \nframe=  415 fps= 44 q=38.0 size=    1536KiB time=00:00:03.43 bitrate=3665.0kbits/s speed=0.364x elapsed=0:00:09.41    \nframe=  446 fps= 45 q=38.0 size=    1536KiB time=00:00:03.70 bitrate=3400.9kbits/s speed=0.37x elapsed=0:00:10.00    \nframe=  474 fps= 45 q=38.0 size=    1792KiB time=00:00:03.91 bitrate=3748.2kbits/s speed=0.372x elapsed=0:00:10.51    \nframe=  488 fps= 44 q=38.0 size=    1792KiB time=00:00:04.01 bitrate=3654.9kbits/s speed=0.363x elapsed=0:00:11.07    \nframe=  520 fps= 45 q=38.0 size=    2048KiB time=00:00:04.25 bitrate=3939.9kbits/s speed=0.366x elapsed=0:00:11.63    \nframe=  549 fps= 45 q=38.0 size=    2048KiB time=00:00:04.55 bitrate=3680.6kbits/s speed=0.374x elapsed=0:00:12.20    \nframe=  590 fps= 46 q=-1.0 size=    2304KiB time=00:00:04.85 bitrate=3885.0kbits/s speed=0.381x elapsed=0:00:12.74    \n[mp4 @ 0000024da281a340] Starting second pass: moving the moov atom to the beginning of the file\n[out#0/mp4 @ 0000024da281a240] video:2382KiB audio:0KiB subtitle:0KiB other streams:0KiB global headers:0KiB muxing overhead: 0.331100%\nframe=  600 fps= 46 q=-1.0 Lsize=    2390KiB time=00:00:04.98 bitrate=3928.2kbits/s speed=0.386x elapsed=0:00:12.91    \n[libx264 @ 0000024da281ca80] frame I:3     Avg QP:32.42  size: 40520\n[libx264 @ 0000024da281ca80] frame P:151   Avg QP:33.11  size:  9487\n[libx264 @ 0000024da281ca80] frame B:446   Avg QP:34.92  size:  1982\n[libx264 @ 0000024da281ca80] consecutive B-frames:  0.8%  0.0%  0.5% 98.7%\n[libx264 @ 0000024da281ca80] mb I  I16..4: 30.1% 63.6%  6.2%\n[libx264 @ 0000024da281ca80] mb P  I16..4:  0.8%  0.4%  0.0%  P16..4: 29.1%  4.9%  4.3%  0.0%  0.0%    skip:60.6%\n[libx264 @ 0000024da281ca80] mb B  I16..4:  0.0%  0.0%  0.0%  B16..8: 33.0%  0.1%  0.0%  direct: 0.0%  skip:66.8%  L0:33.3% L1:66.5% BI: 0.2%\n[libx264 @ 0000024da281ca80] 8x8 transform intra:52.3% inter:87.8%\n[libx264 @ 0000024da281ca80] direct mvs  spatial:97.8% temporal:2.2%\n[libx264 @ 0000024da281ca80] coded y,uvDC,uvAC intra: 35.5% 25.6% 4.9% inter: 2.5% 1.1% 0.0%\n[libx264 @ 0000024da281ca80] i16 v,h,dc,p: 10% 73%  3% 13%\n[libx264 @ 0000024da281ca80] i8 v,h,dc,ddl,ddr,vr,hd,vl,hu:  7% 21%  8%  6% 12%  8% 16%  6% 16%\n[libx264 @ 0000024da281ca80] i4 v,h,dc,ddl,ddr,vr,hd,vl,hu:  2% 22%  3%  7% 11%  8% 18%  6% 22%\n[libx264 @ 0000024da281ca80] i8c dc,h,v,p: 30% 60%  6%  4%\n[libx264 @ 0000024da281ca80] Weighted P-Frames: Y:0.0% UV:0.0%\n[libx264 @ 0000024da281ca80] ref P L0: 57.1% 19.1% 18.2%  2.6%  3.0%\n[libx264 @ 0000024da281ca80] ref B L0: 94.3%  4.4%  1.0%  0.3%\n[libx264 @ 0000024da281ca80] ref B L1: 96.5%  3.5%\n[libx264 @ 0000024da281ca80] kb/s:3900.92\n",
  "seconds": 13.175657033920288,
  "probe_out": {}
}